<?xml version="1.0" encoding="UTF-8"?>
<svg width="20px" height="20px" viewBox="0 0 20 20" version="1.1" xmlns="http://www.w3.org/2000/svg" xmlns:xlink="http://www.w3.org/1999/xlink">
    <title>C0C79CCD-0C5C-4770-A90F-C004454E3686</title>
    <g id="Home_page" stroke="none" stroke-width="1" fill="none" fill-rule="evenodd">
        <g id="6-1-2.New_template_content_not_filled" transform="translate(-719.000000, -608.000000)" fill="#6DD400" fill-rule="nonzero">
            <g id="Group-29" transform="translate(470.000000, 222.000000)">
                <g id="Group-27" transform="translate(45.000000, 386.000000)">
                    <g id="Group-23" transform="translate(179.000000, 0.000000)">
                        <g id="check-circle-solid" transform="translate(25.000000, 0.000000)">
                            <path d="M20,10 C20,15.5228629 15.5228629,20 10,20 C4.4771371,20 0,15.5228629 0,10 C0,4.4771371 4.4771371,0 10,0 C15.5228629,0 20,4.4771371 20,10 Z M8.84330645,15.2949194 L16.2626613,7.87556452 C16.5145968,7.62362903 16.5145968,7.21512097 16.2626613,6.96318548 L15.3502823,6.05080645 C15.0983468,5.79883065 14.6898387,5.79883065 14.4378629,6.05080645 L8.38709677,12.1015323 L5.5621371,9.27657258 C5.31020161,9.0246371 4.90169355,9.0246371 4.64971774,9.27657258 L3.73733871,10.1889516 C3.48540323,10.4408871 3.48540323,10.8493952 3.73733871,11.1013306 L7.9308871,15.294879 C8.1828629,15.5468548 8.59133065,15.5468548 8.84330645,15.2949194 L8.84330645,15.2949194 Z" id="Shape"></path>
                        </g>
                    </g>
                </g>
            </g>
        </g>
    </g>
</svg>