<?xml version="1.0" encoding="UTF-8"?>
<svg width="20px" height="20px" viewBox="0 0 20 20" version="1.1" xmlns="http://www.w3.org/2000/svg" xmlns:xlink="http://www.w3.org/1999/xlink">
    <title>14047BBE-273C-4B03-82D6-BF834728959C</title>
    <g id="Home_page" stroke="none" stroke-width="1" fill="none" fill-rule="evenodd">
        <g id="6-1-2.New_template_content_not_filled" transform="translate(-885.000000, -608.000000)" fill="#E02020" fill-rule="nonzero">
            <g id="Group-29" transform="translate(470.000000, 222.000000)">
                <g id="Group-27" transform="translate(45.000000, 386.000000)">
                    <g id="Group-26" transform="translate(348.000000, 0.000000)">
                        <g id="times-circle-solid" transform="translate(22.000000, 0.000000)">
                            <path d="M10,0 C4.47580645,0 0,4.47580645 0,10 C0,15.5241935 4.47580645,20 10,20 C15.5241935,20 20,15.5241935 20,10 C20,4.47580645 15.5241935,0 10,0 Z M14.9032258,12.625 C15.0927419,12.8145161 15.0927419,13.1209677 14.9032258,13.3104839 L13.3064516,14.9032258 C13.1169355,15.0927419 12.8104839,15.0927419 12.6209677,14.9032258 L10,12.2580645 L7.375,14.9032258 C7.18548387,15.0927419 6.87903226,15.0927419 6.68951613,14.9032258 L5.09677419,13.3064516 C4.90725806,13.1169355 4.90725806,12.8104839 5.09677419,12.6209677 L7.74193548,10 L5.09677419,7.375 C4.90725806,7.18548387 4.90725806,6.87903226 5.09677419,6.68951613 L6.69354839,5.09274194 C6.88306452,4.90322581 7.18951613,4.90322581 7.37903226,5.09274194 L10,7.74193548 L12.625,5.09677419 C12.8145161,4.90725806 13.1209677,4.90725806 13.3104839,5.09677419 L14.9072581,6.69354839 C15.0967742,6.88306452 15.0967742,7.18951613 14.9072581,7.37903226 L12.2580645,10 L14.9032258,12.625 Z" id="Shape"></path>
                        </g>
                    </g>
                </g>
            </g>
        </g>
    </g>
</svg>