<?xml version="1.0" encoding="UTF-8"?>
<svg width="20px" height="20px" viewBox="0 0 20 20" version="1.1" xmlns="http://www.w3.org/2000/svg" xmlns:xlink="http://www.w3.org/1999/xlink">
    <title>AE04B78B-DA75-4A20-B97D-487E4FEC44CA</title>
    <g id="Home_page" stroke="none" stroke-width="1" fill="none" fill-rule="evenodd">
        <g id="6-1-2.New_template_content_not_filled" transform="translate(-545.000000, -608.000000)" fill="#F7B500" fill-rule="nonzero">
            <g id="Group-29" transform="translate(470.000000, 222.000000)">
                <g id="Group-27" transform="translate(45.000000, 386.000000)">
                    <g id="Group-22">
                        <g id="Group-9">
                            <g id="minus-circle-solid" transform="translate(30.000000, 0.000000)">
                                <path d="M10,0 C4.47580645,0 0,4.47580645 0,10 C0,15.5241935 4.47580645,20 10,20 C15.5241935,20 20,15.5241935 20,10 C20,4.47580645 15.5241935,0 10,0 Z M4.67741935,11.6129032 C4.41129032,11.6129032 4.19354839,11.3951613 4.19354839,11.1290323 L4.19354839,8.87096774 C4.19354839,8.60483871 4.41129032,8.38709677 4.67741935,8.38709677 L15.3225806,8.38709677 C15.5887097,8.38709677 15.8064516,8.60483871 15.8064516,8.87096774 L15.8064516,11.1290323 C15.8064516,11.3951613 15.5887097,11.6129032 15.3225806,11.6129032 L4.67741935,11.6129032 Z" id="Shape"></path>
                            </g>
                        </g>
                    </g>
                </g>
            </g>
        </g>
    </g>
</svg>