<?xml version="1.0" encoding="UTF-8"?>
<svg width="23px" height="21px" viewBox="0 0 23 21" version="1.1" xmlns="http://www.w3.org/2000/svg" xmlns:xlink="http://www.w3.org/1999/xlink">
    <title>E02AE3D8-3B79-43EC-A95D-B6CBA8C4B244</title>
    <g id="Home_page" stroke="none" stroke-width="1" fill="none" fill-rule="evenodd">
        <g id="6-1-1.Templates" transform="translate(-265.000000, -576.000000)">
            <g id="Group-8" transform="translate(245.000000, 112.000000)">
                <g id="Group-6-Copy-2" transform="translate(1.859560, 445.000000)">
                    <g id="Group-2" transform="translate(19.140440, 16.000000)">
                        <g id="icons8-facebook_messenger" transform="translate(0.000000, 3.000000)">
                            <path d="M10.5,0.082 C5.031,0.082 0.605,4.301 0.605,9.457 C0.605,12.168 1.801,14.562 3.73,16.281 L3.73,20.918 L7.793,18.469 C8.625,18.676 9.562,18.832 10.5,18.832 C15.969,18.832 20.395,14.613 20.395,9.457 C20.395,4.301 15.969,0.082 10.5,0.082 Z" id="Fill-1" fill="#448AFF"></path>
                            <polygon id="Fill-2" fill="#FFFFFF" points="4.25 12.582 9.457 6.855 12.062 9.457 16.75 6.855 11.543 12.582 8.938 9.98"></polygon>
                        </g>
                    </g>
                </g>
            </g>
        </g>
    </g>
</svg>