<?xml version="1.0" encoding="UTF-8"?>
<svg width="23px" height="21px" viewBox="0 0 23 21" version="1.1" xmlns="http://www.w3.org/2000/svg" xmlns:xlink="http://www.w3.org/1999/xlink">
    <title>7DEABDE2-43D0-47F3-9FE8-C29071CD3BCC</title>
    <g id="Home_page" stroke="none" stroke-width="1" fill="none" fill-rule="evenodd">
        <g id="6-1-1.Templates" transform="translate(-546.000000, -575.000000)">
            <g id="Group-8" transform="translate(245.000000, 112.000000)">
                <g id="Group-6-Copy-3" transform="translate(282.859560, 445.000000)">
                    <g id="Group-2" transform="translate(19.140440, 16.000000)">
                        <g id="icons8-telegram_app" transform="translate(0.000000, 2.000000)">
                            <path d="M10.5,0.082 C4.746,0.082 0.082,4.746 0.082,10.5 C0.082,16.254 4.746,20.918 10.5,20.918 C16.254,20.918 20.918,16.254 20.918,10.5 C20.918,4.746 16.254,0.082 10.5,0.082 Z" id="Fill-1" fill="#29B6F6"></path>
                            <path d="M15.684,5.812 L13.73,15.773 C13.73,15.773 13.648,16.23 13.082,16.23 C12.781,16.23 12.629,16.086 12.629,16.086 L8.402,12.578 L6.336,11.539 L3.68,10.832 C3.68,10.832 3.207,10.695 3.207,10.305 C3.207,9.98 3.695,9.824 3.695,9.824 L14.797,5.414 C14.797,5.414 15.137,5.293 15.383,5.293 C15.535,5.293 15.707,5.355 15.707,5.551 C15.707,5.684 15.684,5.812 15.684,5.812 Z" id="Fill-2" fill="#FFFFFF"></path>
                            <path d="M9.98,13.887 L8.195,15.645 C8.195,15.645 8.117,15.707 8.012,15.707 C7.977,15.707 7.938,15.703 7.898,15.684 L8.402,12.578 L9.98,13.887 Z" id="Fill-3" fill="#B0BEC5"></path>
                            <path d="M13.57,7.477 C13.484,7.363 13.32,7.34 13.207,7.43 L6.332,11.543 C6.332,11.543 7.43,14.609 7.598,15.141 C7.766,15.672 7.898,15.688 7.898,15.688 L8.402,12.578 L13.523,7.84 C13.637,7.754 13.66,7.59 13.57,7.477 Z" id="Fill-4" fill="#CFD8DC"></path>
                        </g>
                    </g>
                </g>
            </g>
        </g>
    </g>
</svg>