<?xml version="1.0" encoding="UTF-8"?>
<svg width="23px" height="21px" viewBox="0 0 23 21" version="1.1" xmlns="http://www.w3.org/2000/svg" xmlns:xlink="http://www.w3.org/1999/xlink">
    <title>8719BC94-02D7-441B-8AD2-85217A8D0B2E</title>
    <g id="Home_page" stroke="none" stroke-width="1" fill="none" fill-rule="evenodd">
        <g id="6-1-1.Templates" transform="translate(-827.000000, -575.000000)">
            <g id="Group-8" transform="translate(245.000000, 112.000000)">
                <g id="Group-6-Copy-4" transform="translate(563.859560, 445.000000)">
                    <g id="Group-2" transform="translate(19.140440, 16.000000)">
                        <g id="Group" transform="translate(0.000000, 2.000000)">
                            <path d="M10.418,-3.33955086e-13 C4.664,-3.33955086e-13 7.10542736e-15,4.664 7.10542736e-15,10.418 C7.10542736e-15,16.172 4.664,20.836 10.418,20.836 C16.172,20.836 20.836,16.172 20.836,10.418 C20.836,4.664 16.172,-3.33955086e-13 10.418,-3.33955086e-13 Z" id="Fill-1" fill="#4E73DF"></path>
                            <path d="M10.5,4 C7.89792,4 5.70404,5.80403701 4.99944,8.27085586 C4.36972,8.6514478 4,9.38347551 4,10.2420201 C4,11.4842805 4.75764,12.4953743 6.00096,12.4953743 C6.27708,12.4953743 6.50068,12.2714967 6.50068,11.9929513 L6.50068,8.48848572 C6.50068,8.25888101 6.33584,8.07769634 6.12472,8.02094597 C6.85584,6.22732188 8.54168,4.9704834 10.5,4.9704834 C12.45832,4.9704834 14.14416,6.22732188 14.87528,8.02094597 C14.66416,8.07769634 14.49932,8.25888101 14.49932,8.48848572 L14.49932,11.9929513 C14.49932,12.2714967 14.72292,12.4953743 14.99904,12.4953743 C15.11708,12.4953743 15.22056,12.4807962 15.3282,12.4625736 C15.16596,13.3981737 14.77596,14.0937563 14.37556,14.5758741 C14.12596,14.8768072 13.87168,15.0923545 13.67304,15.2324082 C13.57112,15.3016541 13.49624,15.3464296 13.43696,15.3729825 C13.40888,15.3870399 13.38444,15.3995354 13.37404,15.4037006 L12.43804,15.4037006 C12.25708,14.883055 11.68404,14.4962153 10.99972,14.4962153 C10.17084,14.4962153 9.50056,15.0579919 9.50056,15.7494093 C9.50056,16.438744 10.17084,17 10.99972,17 C11.68404,17 12.25708,16.6157635 12.43804,16.0930354 L13.42084,16.0930354 C13.5914,16.0930354 13.63404,16.0482598 13.73388,15.9993192 C13.8332,15.9503785 13.95332,15.8832152 14.07916,15.7962674 C14.32876,15.6192479 14.6314,15.3646522 14.92208,15.0132164 C15.4504,14.3785494 15.93972,13.4325363 16.0614,12.1658056 C16.65264,11.7753214 17,11.069326 17,10.2420201 C17,9.38347551 16.63028,8.6514478 16.00056,8.27085586 C15.29596,5.80403701 13.10208,4 10.5,4 Z" id="Fill-1" fill="#FFFFFF"></path>
                        </g>
                    </g>
                </g>
            </g>
        </g>
    </g>
</svg>